<svg width="895" height="449" viewBox="0 0 895 449" fill="none" xmlns="http://www.w3.org/2000/svg">
<g clip-path="url(#clip0_49_145)">
<path d="M294.493 448.283C267.51 448.283 240.567 447.8 213.664 446.834C175.224 445.453 135.475 444.026 98.5289 423.535C72.6838 409.202 49.794 386.206 32.3347 357.031C20.6652 337.257 12.1086 315.804 6.96545 293.427C-2.62848 252.685 -2.3017 210.236 7.91831 169.647C11.4998 155.731 16.4371 142.199 22.6594 129.247C49.6024 73.4534 98.7443 36.0007 157.485 26.4929C157.97 26.43 158.461 26.4195 158.948 26.4617C159.212 26.4758 159.476 26.491 159.744 26.4797L160.09 26.3699C160.976 26.062 161.886 25.8284 162.811 25.6716C253.405 12.1848 349.176 39.4734 439.763 104.585C509.805 154.936 602.63 182.05 723.544 187.474L725.261 187.564C758.92 189.498 791.479 203.375 819.421 227.697C847.001 251.703 867.708 283.731 879.305 320.321C880.731 324.782 882.038 329.426 883.189 334.122C884.262 338.486 884.186 343.054 882.969 347.381C881.753 351.708 879.438 355.646 876.248 358.812V358.821L875.947 359.131C875.223 359.851 874.46 360.543 873.68 361.186L872.763 361.942C865.036 368.307 858.933 373.336 851.628 377.241C846.757 379.828 841.575 381.784 836.21 383.062C806.744 390.246 776.822 396.906 747.274 402.859C689.889 414.429 630.992 423.974 572.22 431.227C480.08 442.588 387.33 448.284 294.493 448.283V448.283ZM158.261 28.4378C158.081 28.4361 157.901 28.4483 157.722 28.4744C99.5301 37.8933 50.8534 74.9783 24.1776 130.219C18.0167 143.044 13.1282 156.441 9.58235 170.219C-0.544539 210.448 -0.867255 252.521 8.64134 292.9C13.7341 315.063 22.2078 336.311 33.7647 355.896C51.0531 384.785 73.7088 407.551 99.2829 421.732C135.897 442.04 175.459 443.461 213.719 444.834C333.382 449.109 453.195 443.895 572.034 429.239C630.769 421.99 689.627 412.452 746.974 400.888C776.503 394.94 806.404 388.285 835.85 381.105C841.086 379.859 846.143 377.951 850.897 375.427C858.054 371.6 864.099 366.62 871.752 360.315L872.669 359.56C873.339 359.007 873.997 358.415 874.627 357.8L874.808 357.61C881.097 351.271 883.543 342.908 881.518 334.666V334.665C880.378 330.018 879.085 325.425 877.674 321.009C853.984 246.263 792.7 193.44 725.178 189.562L723.47 189.472C668.239 186.994 619.907 180.129 575.719 168.482C522.969 154.58 476.918 133.652 438.843 106.281C348.601 41.4192 253.23 14.2322 163.032 27.655C162.189 27.8004 161.36 28.0153 160.553 28.2976L159.93 28.4719C159.576 28.4878 159.222 28.4835 158.869 28.4592C158.66 28.4485 158.458 28.4378 158.261 28.4378H158.261Z" fill="#628ECC"/>
<path d="M338.076 146.937C335.578 144.541 333.023 131.176 329.834 129.819C332.218 135.088 330.487 136.482 330.474 142.265C330.504 145.548 330.121 148.822 329.333 152.009H275.309V109.848C275.308 106.059 276.055 102.308 277.504 98.808C278.954 95.308 281.079 92.1278 283.758 89.449C286.436 86.7702 289.617 84.6453 293.117 83.1956C296.617 81.746 300.368 80.9999 304.156 81C305.602 81.0282 307.039 81.2385 308.432 81.626C313.076 82.8797 317.308 85.3324 320.704 88.7381C324.101 92.1439 326.542 96.3828 327.783 101.03C331.901 116.083 338.451 141.141 338.076 146.937Z" fill="#2F2E41"/>
<path d="M278.479 198.804L278.506 165.941L259.188 167.668L266.006 188.394L262.815 240.491C261.267 240.838 259.854 241.628 258.748 242.764C257.642 243.901 256.89 245.335 256.585 246.891C256.279 248.447 256.433 250.059 257.028 251.529C257.622 252.999 258.632 254.265 259.933 255.171C261.235 256.078 262.772 256.586 264.357 256.634C265.942 256.682 267.507 256.268 268.861 255.442C270.215 254.616 271.299 253.414 271.982 251.982C272.664 250.55 272.916 248.951 272.705 247.379L278.479 198.804Z" fill="#FFB6B6"/>
<path d="M316.496 433.64L324.3 433.639L328.013 403.537H316.494L316.496 433.64Z" fill="#FFB6B6"/>
<path d="M312.556 434.736L324.893 434V439.286L336.622 447.386C337.201 447.786 337.638 448.361 337.867 449.027C338.097 449.692 338.108 450.414 337.898 451.086C337.688 451.758 337.27 452.346 336.702 452.763C336.135 453.18 335.45 453.405 334.746 453.405H320.058L317.526 448.177L316.538 453.405H311L312.556 434.736Z" fill="#2F2E41"/>
<path d="M271.37 433.64L279.175 433.639L282.887 403.537H271.369L271.37 433.64Z" fill="#FFB6B6"/>
<path d="M268.556 434.736L280.893 434V439.286L292.622 447.386C293.201 447.786 293.638 448.361 293.867 449.027C294.097 449.692 294.108 450.414 293.898 451.086C293.688 451.758 293.27 452.346 292.703 452.763C292.135 453.18 291.45 453.405 290.746 453.405H276.058L273.526 448.177L272.538 453.405H267L268.556 434.736Z" fill="#2F2E41"/>
<path d="M309.546 130.453L293.379 130.77L281.967 142.816L272.817 144.158C268.679 144.765 264.874 146.774 262.038 149.85C259.203 152.926 257.509 156.881 257.24 161.055L258.825 169.762H268.335L273.837 202.065C271.698 207.516 271.552 211.819 275.944 213.509L289.575 239.186L329.835 221.117C331.876 217.607 332.531 214.081 330.444 210.653L333.322 161.203H342.999C342.999 151.954 339.871 144.157 330.68 143.128C327.029 142.733 323.362 142.523 319.69 142.499L309.546 130.453Z" fill="#E6E6E6"/>
<path d="M329.834 221.116C329.834 221.116 290.525 228.09 275.943 213.508C275.943 213.508 274.462 216.021 272.231 220.189C271.59 221.388 270.351 222.2 269.603 223.652C268.923 224.972 267.173 226.594 266.433 228.091C265.837 229.295 266.793 230.868 266.173 232.169C258.705 247.832 249.98 269.927 251.85 284.517C253.056 293.926 255.548 315.819 258.172 339.333C258.377 341.171 256.716 343.531 256.922 345.382C257.117 347.129 259.178 348.366 259.372 350.116C259.501 351.278 258.062 352.464 258.19 353.625C258.332 354.898 260.041 356.146 260.181 357.415C263.775 389.883 267.067 420.196 267.067 420.196H285.453L288.922 350.964L286.087 325.728L292.744 274.69L301.937 323.192L303.12 350.489L312.835 421.464H329.834V352.756L331.102 349.187L329.834 344.609L331.102 339.676L329.834 334.305V221.116Z" fill="#2F2E41"/>
<path d="M314.508 121.076C312.004 124.403 308.441 126.778 304.407 127.809C300.372 128.841 296.107 128.468 292.313 126.751C288.519 125.035 285.423 122.078 283.534 118.366C281.646 114.655 281.077 110.412 281.923 106.334C282.768 102.257 284.977 98.5889 288.185 95.9345C291.394 93.2801 295.41 91.7975 299.574 91.7309C303.737 91.6642 307.799 93.0175 311.091 95.5679C314.383 98.1183 316.708 101.714 317.683 105.762C317.736 105.982 317.78 106.2 317.824 106.427C318.339 108.964 318.31 111.582 317.738 114.107C317.166 116.633 316.066 119.008 314.508 121.076V121.076Z" fill="#FFB6B6"/>
<path d="M310.687 110.621C310.299 108.669 309.315 106.887 307.872 105.517C308.015 107.387 307.755 109.265 307.112 111.026C302.292 111.453 297.45 110.494 293.157 108.262C289.924 106.068 285.809 106.259 281.016 108.262C281.015 105.931 281.474 103.622 282.366 101.468C283.258 99.3143 284.566 97.3572 286.215 95.7087C287.863 94.0602 289.82 92.7525 291.974 91.8605C294.128 90.9685 296.437 90.5095 298.768 90.5098H301.938C306.646 90.5106 311.161 92.3812 314.49 95.7103C317.819 99.0393 319.69 103.554 319.69 108.262C316.765 109.312 313.752 110.101 310.687 110.621V110.621Z" fill="#2F2E41"/>
<path d="M172 336.881C200.167 336.881 223 314.047 223 285.881C223 257.714 200.167 234.881 172 234.881C143.833 234.881 121 257.714 121 285.881C121 314.047 143.833 336.881 172 336.881Z" fill="#FF7705" fill-opacity="0.62"/>
<path d="M438.25 102C466.417 102 489.25 79.1665 489.25 51C489.25 22.8335 466.417 0 438.25 0C410.083 0 387.25 22.8335 387.25 51C387.25 79.1665 410.083 102 438.25 102Z" fill="#FFCE00" fill-opacity="0.71"/>
<path d="M843.25 344C871.417 344 894.25 321.167 894.25 293C894.25 264.833 871.417 242 843.25 242C815.083 242 792.25 264.833 792.25 293C792.25 321.167 815.083 344 843.25 344Z" fill="#FF3232" fill-opacity="0.57"/>
<path d="M530.248 56.5609V172.207C530.249 174.609 529.301 176.914 527.611 178.622C525.922 180.329 523.627 181.301 521.225 181.326C521.192 181.33 521.158 181.331 521.125 181.33H507.665C496.896 181.33 486.567 177.052 478.952 169.437C471.337 161.822 467.059 151.493 467.059 140.724V56.5609C467.059 54.1412 468.02 51.8206 469.731 50.1097C471.442 48.3987 473.762 47.4375 476.182 47.4375H481.636C479.109 54.8081 513.401 57.9113 515.284 47.4375H521.125C523.545 47.4375 525.865 48.3987 527.576 50.1097C529.287 51.8207 530.248 54.1412 530.248 56.5609Z" fill="#DBDDE8" fill-opacity="0.63"/>
<path d="M490.307 38.7914C490.307 38.4744 490.433 38.1705 490.657 37.9463C490.881 37.7222 491.185 37.5961 491.502 37.5957H499.633C499.949 37.5966 500.252 37.723 500.476 37.9471C500.699 38.1712 500.825 38.4748 500.825 38.7914C500.825 39.1079 500.699 39.4115 500.476 39.6356C500.252 39.8597 499.949 39.9861 499.633 39.987H491.502C491.185 39.9866 490.881 39.8606 490.657 39.6364C490.433 39.4123 490.307 39.1083 490.307 38.7914V38.7914Z" fill="#3F3D56"/>
<path d="M523.919 196H472.503C468.514 195.996 464.69 194.409 461.869 191.589C459.048 188.768 457.462 184.944 457.457 180.955V100.113C457.175 99.9105 456.945 99.6434 456.786 99.334C456.628 99.0247 456.545 98.682 456.546 98.3344V90.2041C456.545 89.8566 456.628 89.514 456.786 89.2047C456.945 88.8954 457.175 88.6284 457.457 88.4258V86.2436C457.175 86.041 456.945 85.7739 456.786 85.4647C456.628 85.1554 456.545 84.8128 456.546 84.4653V76.3344C456.545 75.9869 456.628 75.6443 456.786 75.3351C456.945 75.0258 457.175 74.7588 457.457 74.5561V70.6123C457.108 70.425 456.817 70.1466 456.615 69.8067C456.412 69.4668 456.306 69.0783 456.307 68.6826V60.5522C456.306 60.1565 456.412 59.7678 456.615 59.4279C456.817 59.0879 457.108 58.8093 457.457 58.622V47.8154C457.462 43.8263 459.048 40.0019 461.869 37.1813C464.69 34.3606 468.514 32.774 472.503 32.7695H523.919C527.908 32.774 531.733 34.3607 534.553 37.1813C537.374 40.002 538.961 43.8264 538.965 47.8154V71.3716C539.236 71.5411 539.46 71.7766 539.615 72.0562C539.77 72.3357 539.851 72.6501 539.851 72.9697V88.4726C539.851 88.7923 539.77 89.1067 539.615 89.3863C539.46 89.666 539.236 89.9016 538.965 90.0712V180.955C538.961 184.944 537.374 188.768 534.553 191.589C531.733 194.409 527.908 195.996 523.919 196V196ZM472.503 34.7695C469.045 34.7734 465.728 36.1491 463.283 38.5948C460.837 41.0406 459.461 44.3566 459.457 47.8154V60.3232L458.495 60.3604C458.445 60.3621 458.398 60.383 458.363 60.4187C458.328 60.4544 458.307 60.5022 458.307 60.5522V68.6825C458.308 68.7325 458.328 68.7802 458.363 68.8159C458.398 68.8516 458.445 68.8725 458.495 68.8745L459.457 68.9111V75.9604L458.696 76.1479C458.654 76.158 458.617 76.1818 458.589 76.2156C458.562 76.2493 458.547 76.2911 458.546 76.3344V84.4653C458.547 84.5086 458.562 84.5504 458.589 84.5841C458.617 84.6178 458.654 84.6416 458.696 84.6518L459.457 84.8393V89.83L458.696 90.0175C458.654 90.0276 458.617 90.0515 458.589 90.0852C458.562 90.1189 458.547 90.1607 458.546 90.204V98.3344C458.547 98.3778 458.562 98.4197 458.589 98.4535C458.616 98.4873 458.654 98.5112 458.696 98.5214L459.457 98.7089V180.955C459.461 184.413 460.837 187.729 463.283 190.175C465.728 192.621 469.045 193.997 472.503 194H523.919C527.378 193.996 530.694 192.621 533.14 190.175C535.586 187.729 536.961 184.413 536.965 180.955V88.3588H537.851V73.084H536.965V47.8154C536.961 44.3566 535.586 41.0406 533.14 38.5949C530.694 36.1492 527.378 34.7735 523.919 34.7695L472.503 34.7695Z" fill="#3F3D56"/>
<path d="M504.176 39.987C504.836 39.987 505.372 39.4517 505.372 38.7914C505.372 38.131 504.836 37.5957 504.176 37.5957C503.516 37.5957 502.98 38.131 502.98 38.7914C502.98 39.4517 503.516 39.987 504.176 39.987Z" fill="#3F3D56"/>
<path d="M302.83 271.284H169.043C167.143 271.279 165.322 270.522 163.979 269.179C162.635 267.835 161.878 266.015 161.873 264.115V198.926C161.878 197.026 162.635 195.205 163.978 193.862C165.321 192.518 167.142 191.761 169.042 191.756H302.829C304.729 191.761 306.55 192.518 307.893 193.861C309.237 195.204 309.994 197.025 309.999 198.925V264.114C309.994 266.014 309.237 267.834 307.894 269.178C306.551 270.522 304.73 271.279 302.83 271.284Z" fill="white"/>
<path d="M302.83 271.284H169.043C167.143 271.279 165.322 270.522 163.979 269.179C162.635 267.835 161.878 266.015 161.873 264.115V198.926C161.878 197.026 162.635 195.205 163.978 193.862C165.321 192.518 167.142 191.761 169.042 191.756H302.829C304.729 191.761 306.55 192.518 307.893 193.861C309.237 195.204 309.994 197.025 309.999 198.925V264.114C309.994 266.014 309.237 267.834 307.894 269.178C306.551 270.522 304.73 271.279 302.83 271.284ZM169.043 193.756C167.673 193.76 166.36 194.306 165.391 195.275C164.423 196.244 163.877 197.557 163.873 198.927V264.114C163.877 265.484 164.423 266.797 165.392 267.765C166.361 268.734 167.674 269.28 169.044 269.284H302.828C304.198 269.28 305.511 268.734 306.48 267.765C307.449 266.796 307.995 265.483 307.999 264.113V198.926C307.995 197.556 307.449 196.243 306.48 195.274C305.511 194.306 304.198 193.76 302.828 193.756L169.043 193.756Z" fill="#3F3D56"/>
<path d="M243.107 261.649C216.721 261.649 189.208 261.397 178.943 261.233C177.592 261.206 176.306 260.651 175.359 259.688C174.411 258.724 173.878 257.429 173.873 256.078V202.117C173.874 201.633 174.066 201.169 174.407 200.827C174.749 200.484 175.212 200.291 175.696 200.289H296.172C296.655 200.29 297.119 200.482 297.462 200.823C297.804 201.165 297.997 201.628 297.999 202.112V238.724C297.977 244.7 295.613 250.43 291.414 254.683C287.216 258.937 281.518 261.375 275.542 261.476C265.975 261.601 254.646 261.649 243.107 261.649Z" fill="white"/>
<path d="M289.021 235.362H180.162C179.25 235.359 178.361 235.076 177.616 234.551C176.871 234.026 176.306 233.284 175.998 232.426L163.676 197.86C163.439 197.193 163.365 196.479 163.461 195.778C163.556 195.077 163.819 194.409 164.226 193.83C164.633 193.251 165.174 192.779 165.801 192.452C166.429 192.126 167.126 191.954 167.834 191.953L303.906 191.764C304.553 191.763 305.192 191.904 305.779 192.177C306.365 192.45 306.884 192.849 307.3 193.344C307.716 193.84 308.017 194.421 308.184 195.046C308.351 195.671 308.379 196.325 308.266 196.961L308.371 197.006L307.98 197.917L307.976 197.927L293.081 232.682C292.742 233.478 292.176 234.156 291.454 234.632C290.732 235.109 289.886 235.363 289.021 235.362V235.362ZM303.913 193.764L167.838 193.953C167.45 193.954 167.068 194.048 166.724 194.226C166.38 194.405 166.085 194.664 165.861 194.981C165.638 195.298 165.494 195.664 165.442 196.048C165.389 196.432 165.43 196.823 165.56 197.188L177.881 231.753C178.05 232.223 178.36 232.63 178.768 232.917C179.177 233.205 179.664 233.36 180.163 233.362H289.021C289.494 233.362 289.957 233.223 290.352 232.962C290.747 232.702 291.057 232.33 291.243 231.895L306.138 197.139L306.871 197.453L306.138 197.139C306.296 196.77 306.36 196.369 306.324 195.97C306.289 195.57 306.155 195.186 305.934 194.852C305.713 194.517 305.413 194.243 305.061 194.053C304.708 193.863 304.313 193.764 303.913 193.764V193.764Z" fill="#3F3D56"/>
<path d="M235.733 242.886C240.441 242.886 244.257 239.07 244.257 234.362C244.257 229.654 240.441 225.838 235.733 225.838C231.025 225.838 227.209 229.654 227.209 234.362C227.209 239.07 231.025 242.886 235.733 242.886Z" fill="black"/>
<path d="M498.983 168.005C503.691 168.005 507.507 164.189 507.507 159.481C507.507 154.773 503.691 150.957 498.983 150.957C494.275 150.957 490.459 154.773 490.459 159.481C490.459 164.189 494.275 168.005 498.983 168.005Z" fill="white"/>
<path d="M821.379 283.12L798.609 260.64C797.501 259.537 796.186 258.663 794.739 258.07C793.292 257.476 791.743 257.174 790.179 257.18H790.099C788.524 257.184 786.965 257.501 785.513 258.112C784.06 258.723 782.744 259.617 781.639 260.74C776.548 265.892 773.652 272.818 773.561 280.061C773.469 287.304 776.189 294.3 781.149 299.58C781.389 299.84 781.639 300.09 781.889 300.34C783.274 301.716 784.803 302.94 786.449 303.99C790.951 306.898 796.2 308.437 801.559 308.42H801.729C805.408 308.407 809.047 307.665 812.437 306.237C815.827 304.809 818.901 302.723 821.479 300.1C823.714 297.833 824.958 294.772 824.939 291.589C824.92 288.406 823.64 285.36 821.379 283.12V283.12ZM820.059 298.69C815.832 302.949 810.265 305.62 804.298 306.254C798.331 306.888 792.327 305.445 787.299 302.17C785.861 301.218 784.518 300.13 783.289 298.92C778.383 294.074 775.602 287.478 775.559 280.582C775.516 273.687 778.214 267.056 783.059 262.15C783.98 261.211 785.079 260.465 786.291 259.955C787.503 259.445 788.804 259.182 790.119 259.18H790.179C791.481 259.175 792.771 259.427 793.976 259.921C795.18 260.416 796.276 261.142 797.199 262.06L819.969 284.55C821.854 286.414 822.922 288.95 822.939 291.601C822.956 294.252 821.92 296.802 820.059 298.69V298.69Z" fill="#3F3D56"/>
<path d="M746.67 209.341L723.9 186.851C721.659 184.627 718.627 183.383 715.47 183.391H715.4C713.822 183.397 712.261 183.716 710.808 184.328C709.354 184.941 708.036 185.836 706.93 186.961C702.721 191.235 699.992 196.746 699.142 202.684C698.293 208.623 699.368 214.677 702.21 219.961L702.22 219.971C703.392 222.132 704.848 224.126 706.55 225.901C706.74 226.121 706.96 226.341 707.18 226.561C712.409 231.751 719.482 234.657 726.85 234.641H727.03C730.709 234.625 734.348 233.881 737.738 232.451C741.128 231.022 744.201 228.935 746.78 226.311C747.887 225.189 748.762 223.861 749.356 222.401C749.95 220.941 750.25 219.379 750.24 217.803C750.23 216.227 749.909 214.669 749.297 213.217C748.684 211.765 747.791 210.448 746.67 209.341V209.341ZM745.35 224.911C742.956 227.346 740.104 229.282 736.958 230.609C733.812 231.936 730.434 232.626 727.02 232.641H726.85C721.722 232.639 716.71 231.121 712.442 228.277C708.175 225.434 704.844 221.392 702.868 216.661C700.892 211.929 700.359 206.719 701.336 201.685C702.313 196.652 704.757 192.019 708.36 188.371C710.224 186.486 712.76 185.418 715.411 185.401C718.062 185.384 720.612 186.42 722.5 188.281L745.27 210.761C747.154 212.628 748.22 215.167 748.235 217.819C748.25 220.472 747.212 223.022 745.35 224.911L745.35 224.911Z" fill="#3F3D56"/>
<path d="M822.834 290.187L797.731 265.394C796.085 263.772 793.863 262.869 791.552 262.883C789.241 262.897 787.03 263.828 785.404 265.47C783.37 267.525 781.761 269.96 780.669 272.637C779.577 275.314 779.023 278.18 779.039 281.071C779.056 283.963 779.642 286.822 780.764 289.487C781.886 292.151 783.523 294.568 785.58 296.6C787.637 298.631 790.074 300.238 792.752 301.327C795.43 302.416 798.297 302.966 801.188 302.947C804.079 302.927 806.938 302.338 809.601 301.213C812.264 300.088 814.68 298.449 816.709 296.389L822.834 290.187Z" fill="white"/>
<path d="M748.129 216.404L723.026 191.611C721.38 189.988 719.158 189.085 716.846 189.1C714.535 189.114 712.324 190.045 710.699 191.687C708.665 193.742 707.056 196.177 705.964 198.854C704.872 201.531 704.318 204.397 704.334 207.288C704.351 210.179 704.937 213.039 706.059 215.703C707.181 218.368 708.818 220.785 710.874 222.817C712.931 224.848 715.369 226.454 718.047 227.544C720.725 228.633 723.592 229.183 726.483 229.163C729.374 229.144 732.233 228.555 734.896 227.43C737.559 226.304 739.974 224.665 742.004 222.606L748.129 216.404Z" fill="white"/>
<path d="M795.249 305.631L794.649 307.21C791.829 306.141 789.095 305.067 786.449 303.991C739.569 284.861 717.189 262.47 702.219 219.97L702.209 219.96C701.499 217.96 700.809 215.914 700.139 213.821L701.719 213.311C702.247 215.324 703.019 217.265 704.019 219.091C704.839 221.421 705.682 223.691 706.549 225.901C720.619 261.771 741.369 282.271 781.149 299.581C783.149 300.451 785.199 301.314 787.299 302.171C789.737 303.759 792.424 304.929 795.249 305.631V305.631Z" fill="#3F3D56"/>
<path d="M723.482 232.819L722.076 234.242L774.014 285.54L775.42 284.117L723.482 232.819Z" fill="#3F3D56"/>
<path d="M342.514 191.195L342.541 158.332L323.223 160.058L330.041 180.785L305.293 218.299C303.746 218.646 302.333 219.436 301.227 220.573C300.12 221.709 299.369 223.143 299.063 224.699C298.758 226.255 298.912 227.867 299.506 229.337C300.101 230.808 301.11 232.073 302.412 232.98C303.713 233.886 305.25 234.394 306.835 234.442C308.421 234.49 309.986 234.076 311.34 233.25C312.694 232.424 313.778 231.222 314.46 229.79C315.143 228.359 315.394 226.759 315.183 225.187L342.514 191.195Z" fill="#FFB6B6"/>
</g>
<defs>
<clipPath id="clip0_49_145">
<rect width="894.249" height="448.282" fill="white"/>
</clipPath>
</defs>
</svg>
