<svg width="146" height="146" viewBox="0 0 146 146" fill="none" xmlns="http://www.w3.org/2000/svg">
<rect width="146" height="146" rx="40" fill="white"/>
<path d="M114.667 82.8122C114.667 79.7205 112.317 77.208 109.417 77.208H67.4834C64.5834 77.208 62.2334 79.7247 62.2334 82.8122C62.2334 85.9038 64.5834 88.4205 67.4834 88.4205H109.417C112.317 88.4205 114.667 85.908 114.667 82.8122Z" fill="#B3B1B0"/>
<path d="M114.667 82.8125H62.2334C62.2334 85.9042 64.5834 88.4208 67.4834 88.4208H109.417C112.317 88.4208 114.667 85.9083 114.667 82.8125Z" fill="#9C9A99"/>
<path d="M42.9207 82.8125H42.729C42.7915 85.8792 44.0415 88.9542 46.4665 91.4292C51.9207 96.9958 57.4623 102.471 62.9665 107.988L63.8165 108.813C65.7707 110.075 65.7873 114.021 64.5748 115.775C63.2832 117.646 61.6165 118.813 59.279 118.813C59.1957 118.813 59.1082 118.813 59.0207 118.808C58.1873 118.779 57.504 118.446 56.8123 118.054C56.6665 117.971 56.5207 117.888 56.379 117.796C60.3457 121.304 65.5873 123 71.329 123C77.5123 123 83.1207 120.871 87.179 116.775L97.9665 105.788C100.092 103.646 100.017 100.1 97.804 97.8708C96.6707 96.725 95.1915 96.15 93.729 96.15C92.3457 96.15 90.9832 96.6667 89.954 97.7083L78.804 108.571C76.879 110.517 74.2123 111.329 71.2707 111.329C68.329 111.329 65.6623 110.517 63.729 108.571L45.8248 90.3917C43.9332 88.4833 42.9582 85.7167 42.9207 82.8125Z" fill="#C98F1B"/>
<path d="M42.7292 82.8125H30.9917C31.0167 89 33.4709 95.0833 38.2375 99.9C43.7542 105.467 49.3084 110.996 54.8375 116.55C55.3084 117.025 55.8209 117.446 56.3792 117.8C56.5209 117.888 56.6625 117.975 56.8125 118.058C57.5042 118.45 58.1875 118.783 59.0209 118.813C59.1084 118.817 59.1917 118.817 59.2792 118.817C61.6167 118.817 63.2834 117.65 64.575 115.779C65.7875 114.025 65.7667 110.079 63.8167 108.817L62.9667 107.992C57.4625 102.475 51.9167 97 46.4667 91.4333C44.0417 88.9583 42.7917 85.8792 42.7292 82.8125Z" fill="#060605"/>
<path d="M37.5127 98.7788L55.4793 116.95C59.5293 121.029 65.1377 123 71.3293 123C77.5127 123 83.121 120.87 87.1793 116.775L97.9668 105.787C100.092 103.645 100.017 100.1 97.8043 97.8704C95.596 95.6413 92.0752 95.5663 89.9543 97.7079L78.8043 108.57C76.8793 110.516 74.2127 111.329 71.271 111.329C68.3293 111.329 65.6627 110.516 63.7293 108.57L45.8252 90.3913C43.896 88.4413 42.921 85.5996 42.921 82.6288C42.921 79.6579 43.896 76.9746 45.8252 75.0288L63.6793 56.7788C65.6127 54.8288 68.3293 54.0913 71.271 54.0913C74.2168 54.0913 76.8835 54.9038 78.8043 56.8496L89.9543 67.7079C92.0793 69.8538 95.596 69.7788 97.8085 67.5496C100.021 65.3163 100.096 61.7746 97.971 59.6288L87.1835 48.6496C84.4835 45.9579 81.0543 43.9996 77.2168 43.1079L77.0793 43.0829L87.2752 32.6496C89.4085 30.5079 89.3335 26.9579 87.121 24.7288C84.9127 22.4996 81.3877 22.4246 79.2585 24.5704L37.5127 66.6496C33.4543 70.7413 31.3335 76.3913 31.3335 82.6329C31.3335 88.8746 33.4543 94.6913 37.5127 98.7788Z" fill="#E7A41F"/>
<path d="M56.8125 118.059C56.0792 117.655 55.4292 117.146 54.8375 116.555C49.3083 111 43.7542 105.471 38.2375 99.9046C29.9542 91.5337 28.6458 79.3379 34.9667 69.4046C35.9417 67.8629 37.1708 66.5129 38.4625 65.2212C51.8292 51.8296 65.1917 38.4295 78.5583 25.0379C81.1625 22.4296 84.7958 22.3212 87.2208 24.7629C89.55 27.1046 89.4167 30.8254 86.9 33.367C83.6917 36.6004 80.4833 39.8254 77.275 43.0546C77.1042 43.5629 76.6917 43.8879 76.3333 44.2504C72.7375 47.9045 69.0375 51.4587 65.5 55.1629C65.0375 55.642 64.4083 55.9379 63.95 56.4337C58.0208 62.3629 52.025 68.2254 46.1792 74.2337C41.4458 79.0962 41.6125 86.4754 46.4625 91.4337C51.9167 97.0004 57.4583 102.475 62.9625 107.992L63.8125 108.817C65.7667 110.08 65.7833 114.025 64.5708 115.78C63.2333 117.721 61.4917 118.905 59.0167 118.813C58.1875 118.78 57.5042 118.446 56.8125 118.059Z" fill="#070706"/>
<path d="M77.254 43.1083C77.0706 43.5875 76.679 43.9 76.3331 44.2458C72.7373 47.9 69.0373 51.4542 65.4998 55.1583C65.0373 55.6375 64.4081 55.9333 63.9498 56.4292C58.0206 62.3583 52.0248 68.2208 46.179 74.2292C43.7623 76.7125 42.6248 79.85 42.7331 82.9875H42.9248C42.9206 82.8667 42.9165 82.7458 42.9165 82.625C42.9165 79.6542 43.8915 76.9708 45.8206 75.025L63.6748 56.775C65.6081 54.825 68.3248 54.0875 71.2665 54.0875C74.2123 54.0875 76.879 54.9 78.7998 56.8458L89.9498 67.7042C90.9831 68.75 92.3498 69.2667 93.7331 69.2667C95.1915 69.2667 96.6706 68.6917 97.804 67.5458C100.016 65.3125 100.091 61.7708 97.9665 59.625L87.179 48.6458C84.4873 45.9583 81.0748 44.0042 77.254 43.1083ZM82.9998 23C82.1915 23.0042 81.3915 23.1875 80.6581 23.55C81.4206 23.2042 82.2165 23.0208 82.9998 23Z" fill="#EAB03C"/>
<path d="M83.1335 23C83.0918 23 83.046 23 83.0043 23C82.2168 23.0167 81.4252 23.2042 80.6627 23.55C79.921 23.8875 79.2085 24.3833 78.5627 25.0333C65.196 38.425 51.8293 51.825 38.4668 65.2167C37.1752 66.5083 35.9502 67.8583 34.971 69.4C32.2543 73.6708 30.946 78.3625 30.996 82.9917H42.7377C42.6293 79.8542 43.771 76.7167 46.1835 74.2333C52.0252 68.225 58.0252 62.3625 63.9543 56.4333C64.4168 55.9375 65.0418 55.6458 65.5043 55.1625C69.0418 51.4583 72.7418 47.9042 76.3377 44.25C76.6835 43.9 77.0752 43.5875 77.2585 43.1125C77.2668 43.0917 77.271 43.075 77.2793 43.0542C80.4877 39.825 83.696 36.6 86.9043 33.3667C89.421 30.825 89.5585 27.1042 87.2252 24.7625C86.0543 23.5833 84.6085 23 83.1335 23Z" fill="#272726"/>
</svg>
