<svg width="552" height="552" viewBox="0 0 552 552" fill="none" xmlns="http://www.w3.org/2000/svg">
<rect x="0.5" y="0.5" width="551" height="551" rx="4.5" stroke="#9747FF" stroke-dasharray="10 5"/>
<path d="M460.72 20C485.912 20 506.387 40.2167 506.794 65.3179L506.8 66.08V485.92C506.8 511.112 486.577 531.587 461.482 531.994L460.72 532H92.08C66.8881 532 46.4132 511.777 46.0062 486.682L46 485.92V66.08C46 40.8817 66.223 20.413 91.3181 20.0062L92.08 20H460.72ZM460.72 45.6H92.08C80.9668 45.6 71.8877 54.5054 71.6067 65.5524L71.6 66.08V485.92C71.6 497.033 80.5054 506.112 91.5524 506.393L92.08 506.4H460.72C471.839 506.4 480.912 497.495 481.193 486.448L481.2 485.92V66.08C481.2 54.7904 472.016 45.6 460.72 45.6ZM161.2 352.8L218.8 404L161.2 455.2V352.8ZM212.4 96.8V242.15C237.962 233.83 273.693 224.8 308.4 224.8C340.048 224.8 358.992 237.242 369.309 247.68C391.105 269.729 391.624 297.756 391.595 301.494L391.594 301.6L391.6 455.2H340.4V302.304C340.15 290.355 334.39 276 308.4 276C256.863 276 199.116 301.661 197.401 302.429L197.366 302.445L161.2 318.829V96.8H212.4ZM391.6 96.8C388.144 125.882 376.355 153.76 353.2 180H302C322.122 153.6 334.755 125.818 340.4 96.8H391.6Z" fill="#430098"/>
</svg>
